# xmcd
#
# Track frame offsets:
#	150
#	16310
#	29142
#	49175
#	59927
#	72495
#	86802
#	102772
#	114682
#	125987
#	141442
#	155132
#	172295
#	186677
#	202045
#	213605
#	230262
#	243627
#
# Disc length: 3519
#
# Revision: 1
# Processed by: cddbd v1.5.1PL0 Copyright (c) Steve Scherf et al.
# Submitted via: OrangeCD 5.1
# Normalized: r0:DSETVAR1
#
DISCID=350dbd12
DTITLE=Various Artist - Solid Gold Country - Volume 2
DYEAR=1989
DGENRE=Country
TTITLE0=Gordon Lightfoot - Sundown
TTITLE1=Jimmy Buffett - Pencil Thin Moustache
TTITLE2=Arlo Guthrie - City Of New Orleans
TTITLE3=Patsy Cline - San Antonio Rose
TTITLE4=The Everly Brothers - Bowling Green
TTITLE5=Don Williams - Amanda
TTITLE6=The Eagles - Deperado
TTITLE7=Linda Ronstandt - Love Me Tender
TTITLE8=Leroy Van Dyke - Auctioneer
TTITLE9=The Happening Thang - I Don't Wanna Go To Work
TTITLE10=Terri Gibbs - Somebody's Knocking
TTITLE11=Jerry Lee Lewis - Somewhere Over The Rainbow
TTITLE12=Keith Carradine - I'm Easy
TTITLE13=Jeannie Pruett - Satin Sheets
TTITLE14=Bill Anderson - The Tip Of My Fingers
TTITLE15=Emmylou Harris - Here There and Everywhere
TTITLE16=Conway Twitty - Honky Tonk Angel
TTITLE17=John Prine - Hello In There
EXTD=
EXTT0=
EXTT1=
EXTT2=
EXTT3=
EXTT4=
EXTT5=
EXTT6=
EXTT7=
EXTT8=
EXTT9=
EXTT10=
EXTT11=
EXTT12=
EXTT13=
EXTT14=
EXTT15=
EXTT16=
EXTT17=
PLAYORDER=
